<svg width="32" height="32" viewBox="0 0 32 32" fill="none" xmlns="http://www.w3.org/2000/svg">
<g clip-path="url(#clip0_120_194)">
<circle cx="16" cy="16" r="16" fill="white"/>
<path d="M23.5833 13.5833H22.695L20.8533 8.51334C20.7009 8.09529 20.4239 7.73405 20.0597 7.47834C19.6955 7.22264 19.2617 7.08478 18.8167 7.08334H17.0833C16.4875 7.08334 16 7.57084 16 8.16668C16 8.76251 16.4875 9.25001 17.0833 9.25001H18.8167L20.3983 13.5833H15.1875L14.7975 12.5H14.895C15.4908 12.5 15.9783 12.0125 15.9783 11.4167C15.9783 10.8208 15.4908 10.3333 14.895 10.3333H11.6667C11.0708 10.3333 10.5833 10.8208 10.5833 11.4167C10.5833 12.0125 11.0708 12.5 11.6667 12.5H12.4792L14.4508 17.9167H13.725C13.2483 15.5008 11.2225 13.7133 8.6875 13.5942C5.65417 13.4425 3 15.9667 3 19C3 22.0333 5.38333 24.4167 8.41667 24.4167C11.0817 24.4167 13.2375 22.5858 13.725 20.0833H18.275C18.7517 22.4992 20.7775 24.2867 23.3125 24.4058C26.3458 24.5467 29 22.0333 29 18.9892C29 15.9667 26.6167 13.5833 23.5833 13.5833ZM9.5 20.0833H11.4717C11.0167 21.4158 9.73833 22.3367 8.2 22.2392C6.58583 22.1417 5.2425 20.7767 5.16667 19.1517C5.09083 17.2558 6.5425 15.75 8.41667 15.75C9.8575 15.75 11.0383 16.6492 11.4717 17.9167H9.5C8.90417 17.9167 8.41667 18.4042 8.41667 19C8.41667 19.5958 8.90417 20.0833 9.5 20.0833ZM18.275 17.9167H16.7583L15.9675 15.75H19.25C18.7733 16.3783 18.4267 17.1042 18.275 17.9167ZM23.4533 22.25C21.785 22.185 20.3767 20.7658 20.3333 19.0867C20.3117 18.0467 20.7558 17.1367 21.4708 16.53L22.1425 18.3717C22.3483 18.935 22.9658 19.2275 23.5292 19.0217C24.0925 18.8158 24.385 18.1983 24.1792 17.635L23.4967 15.7608L23.5075 15.75C23.9418 15.7352 24.3747 15.8086 24.7799 15.9657C25.1851 16.1228 25.5543 16.3604 25.8651 16.6641C26.1759 16.9679 26.422 17.3315 26.5884 17.7329C26.7548 18.1344 26.8381 18.5654 26.8333 19C26.8333 20.8633 25.3383 22.315 23.4533 22.25Z" fill="url(#paint0_linear_120_194)"/>
</g>
<defs>
<linearGradient id="paint0_linear_120_194" x1="15.1014" y1="7.08334" x2="14.3032" y2="24.3854" gradientUnits="userSpaceOnUse">
<stop stop-color="#FFB60D"/>
<stop offset="1" stop-color="#E59317"/>
</linearGradient>
<clipPath id="clip0_120_194">
<rect width="32" height="32" fill="white"/>
</clipPath>
</defs>
</svg>
